<svg xmlns="http://www.w3.org/2000/svg" viewBox="525.5520843505859 98.97710266113282 20.523822021484374 14.23479766845703">
  <path d="M535.087,99.91L537.249,100.545L537.622,101.167L538.606,100.869L540.625,101.471L541.01,102.655L540.695,103.337L542.202,105.001L543.085,105.466L543.046,105.927L544.457,106.376L545.143,107.055L544.459,107.614L542.836,107.527L542.486,107.765L543.094,108.615L543.843,110.263L542.138,110.416L541.607,110.978L541.669,112.279L540.827,112.03L539.028,112.153L538.414,111.55L537.722,112L536.908,111.624L535.32,111.571L532.992,110.956L530.932,110.751L529.383,110.812L528.363,111.51L527.41,111.611L527.236,110.463L526.485,109.271L527.62,108.745L527.513,107.726L526.844,106.752L526.623,105.625L528.54,105.643L530.573,104.682L530.837,103.251L532.342,102.437L531.999,101.308L533.131,100.882Z" fill="currentColor"/>
</svg>