<svg xmlns="http://www.w3.org/2000/svg" viewBox="521.0454650878906 119.34344635009765 21.90211181640625 13.964100646972657">
  <path d="M538.901,127.538L539.89,128.026L540.824,127.601L541.825,128.053L541.952,128.735L541.004,129.309L540.341,129.058L540.118,132.263L538.852,131.984L537.218,131.016L534.809,131.637L533.832,132.312L530.727,132.173L529.075,131.759L528.275,131.952L527.571,130.859L527.144,130.396L527.595,129.951L527.044,129.619L526.441,130.216L525.151,129.444L524.89,128.349L523.566,127.726L523.261,126.884L522.041,125.847L523.666,125.351L524.758,123.562L525.564,121.778L526.771,121.231L527.604,120.668L528.907,120.956L530.228,120.969L531.253,121.609L531.914,121.205L533.405,120.956L533.845,120.339L534.718,120.339L535.37,120.597L536.1,121.373L536.893,122.48L538.272,124.048L538.477,125.204L538.385,126.33Z" fill="currentColor"/>
</svg>